<svg width="460" height="359" viewBox="0 0 460 359" fill="none" xmlns="http://www.w3.org/2000/svg">
<rect width="460" height="359" fill="#FAFAFA"/>
<rect x="20" y="18" width="520" height="420" rx="16" fill="#FFFFFF"/>
<rect x="20.5" y="18.5" width="519" height="419" rx="15.5" stroke="#18181B" stroke-opacity="0.09"/>
<text x="44" y="52" fill="#18181B" font-family="Helvetica Neue, Helvetica, Arial, sans-serif" font-size="15" font-weight="700" letter-spacing="-0.2" text-anchor="start">Training plan</text>
<text x="44" y="74" fill="#71717A" font-family="Helvetica Neue, Helvetica, Arial, sans-serif" font-size="11" font-weight="400" letter-spacing="-0.2" text-anchor="start">Before you start, not after</text>
<path d="M20 92 H540" stroke="#18181B" stroke-opacity="0.08"/>
<rect x="44" y="106" width="440" height="58" rx="12" fill="#FFFFFF"/>
<rect x="44.5" y="106.5" width="439" height="57" rx="11.5" stroke="#18181B" stroke-opacity="0.09"/>
<circle cx="72" cy="135" r="8" fill="#DFD2AC" fill-opacity="0.6"/>
<path d="M68.4 135.2 L70.9 137.6 L75.8 132.2" stroke="#3F3A29" stroke-width="1.8" stroke-linecap="round" stroke-linejoin="round"/>
<text x="94" y="132" fill="#18181B" font-family="Helvetica Neue, Helvetica, Arial, sans-serif" font-size="12" font-weight="600" letter-spacing="-0.2" text-anchor="start">AWS Solutions Architect</text>
<text x="94" y="149" fill="#71717A" font-family="Helvetica Neue, Helvetica, Arial, sans-serif" font-size="10" font-weight="400" letter-spacing="-0.2" text-anchor="start">Complete</text>
<rect x="44" y="174" width="440" height="58" rx="12" fill="#FFFFFF"/>
<rect x="44.5" y="174.5" width="439" height="57" rx="11.5" stroke="#18181B" stroke-opacity="0.09"/>
<circle cx="72" cy="203" r="8" fill="#DFD2AC" fill-opacity="0.6"/>
<path d="M68.4 203.2 L70.9 205.6 L75.8 200.2" stroke="#3F3A29" stroke-width="1.8" stroke-linecap="round" stroke-linejoin="round"/>
<text x="94" y="200" fill="#18181B" font-family="Helvetica Neue, Helvetica, Arial, sans-serif" font-size="12" font-weight="600" letter-spacing="-0.2" text-anchor="start">Data analysis with SQL</text>
<text x="94" y="217" fill="#71717A" font-family="Helvetica Neue, Helvetica, Arial, sans-serif" font-size="10" font-weight="400" letter-spacing="-0.2" text-anchor="start">Complete</text>
<rect x="44" y="242" width="440" height="58" rx="12" fill="#FFFFFF"/>
<rect x="44.5" y="242.5" width="439" height="57" rx="11.5" stroke="#18181B" stroke-opacity="0.09"/>
<circle cx="72" cy="271" r="8" fill="none" stroke="#18181B" stroke-opacity="0.2"/>
<text x="94" y="268" fill="#18181B" font-family="Helvetica Neue, Helvetica, Arial, sans-serif" font-size="12" font-weight="600" letter-spacing="-0.2" text-anchor="start">Business analysis · BRD, FRD</text>
<text x="94" y="285" fill="#71717A" font-family="Helvetica Neue, Helvetica, Arial, sans-serif" font-size="10" font-weight="400" letter-spacing="-0.2" text-anchor="start">In progress</text>
<rect x="44" y="310" width="440" height="58" rx="12" fill="#FFFFFF"/>
<rect x="44.5" y="310.5" width="439" height="57" rx="11.5" stroke="#18181B" stroke-opacity="0.09"/>
<circle cx="72" cy="339" r="8" fill="none" stroke="#18181B" stroke-opacity="0.2"/>
<text x="94" y="336" fill="#18181B" font-family="Helvetica Neue, Helvetica, Arial, sans-serif" font-size="12" font-weight="600" letter-spacing="-0.2" text-anchor="start">Workday HCM fundamentals</text>
<text x="94" y="353" fill="#71717A" font-family="Helvetica Neue, Helvetica, Arial, sans-serif" font-size="10" font-weight="400" letter-spacing="-0.2" text-anchor="start">Queued</text>
<rect y="289" width="460" height="70" fill="url(#fadeD)"/>
<defs><linearGradient id="fadeD" x1="0" y1="289" x2="0" y2="359" gradientUnits="userSpaceOnUse"><stop stop-color="#FAFAFA" stop-opacity="0"/><stop offset="1" stop-color="#FAFAFA"/></linearGradient></defs>
</svg>
