<svg width="305" height="280" viewBox="0 0 305 280" fill="none" xmlns="http://www.w3.org/2000/svg">
<rect x="0" y="0" width="290" height="300" rx="14" fill="#FFFFFF"/>
<rect x="0.5" y="0.5" width="289" height="299" rx="13.5" stroke="#18181B" stroke-opacity="0.09"/>
<circle cx="30" cy="32" r="16" fill="#EFE7D1"/>
<text x="30" y="35.85" fill="#57523F" font-family="Helvetica Neue, Helvetica, Arial, sans-serif" font-size="11" font-weight="700" letter-spacing="-0.2" text-anchor="middle">SU</text>
<text x="56" y="28" fill="#18181B" font-family="Helvetica Neue, Helvetica, Arial, sans-serif" font-size="11.5" font-weight="700" letter-spacing="-0.2" text-anchor="start">Senior Workday Consultant</text>
<text x="56" y="43" fill="#71717A" font-family="Helvetica Neue, Helvetica, Arial, sans-serif" font-size="9.5" font-weight="400" letter-spacing="-0.2" text-anchor="start">Interviewed 12 Mar · by Priya</text>
<path d="M0 62 H290" stroke="#18181B" stroke-opacity="0.08"/>
<text x="18" y="82" fill="#71717A" font-family="Helvetica Neue, Helvetica, Arial, sans-serif" font-size="8.5" font-weight="700" letter-spacing="0.7" text-anchor="start">SCREENING SUMMARY</text>
<circle cx="26" cy="106" r="7.5" fill="#DFD2AC" fill-opacity="0.6"/>
<path d="M22.7 106.2 L25 108.4 L29.5 103.4" stroke="#3F3A29" stroke-width="1.7" stroke-linecap="round" stroke-linejoin="round"/>
<text x="42" y="110" fill="#18181B" font-family="Helvetica Neue, Helvetica, Arial, sans-serif" font-size="10" font-weight="500" letter-spacing="-0.2" text-anchor="start">9 yrs Workday HCM, 4 go-lives</text>
<circle cx="26" cy="136" r="7.5" fill="#DFD2AC" fill-opacity="0.6"/>
<path d="M22.7 136.2 L25 138.4 L29.5 133.4" stroke="#3F3A29" stroke-width="1.7" stroke-linecap="round" stroke-linejoin="round"/>
<text x="42" y="140" fill="#18181B" font-family="Helvetica Neue, Helvetica, Arial, sans-serif" font-size="10" font-weight="500" letter-spacing="-0.2" text-anchor="start">Absence + Time Tracking owner</text>
<circle cx="26" cy="166" r="7.5" fill="#DFD2AC" fill-opacity="0.6"/>
<path d="M22.7 166.2 L25 168.4 L29.5 163.4" stroke="#3F3A29" stroke-width="1.7" stroke-linecap="round" stroke-linejoin="round"/>
<text x="42" y="170" fill="#18181B" font-family="Helvetica Neue, Helvetica, Arial, sans-serif" font-size="10" font-weight="500" letter-spacing="-0.2" text-anchor="start">Led UAT on a 12k-employee tenant</text>
<circle cx="26" cy="196" r="7.5" fill="#DFD2AC" fill-opacity="0.6"/>
<path d="M22.7 196.2 L25 198.4 L29.5 193.4" stroke="#3F3A29" stroke-width="1.7" stroke-linecap="round" stroke-linejoin="round"/>
<text x="42" y="200" fill="#18181B" font-family="Helvetica Neue, Helvetica, Arial, sans-serif" font-size="10" font-weight="500" letter-spacing="-0.2" text-anchor="start">Available in 3 weeks, US-authorised</text>
<path d="M0 224 H290" stroke="#18181B" stroke-opacity="0.08"/>
<text x="18" y="248" fill="#71717A" font-family="Helvetica Neue, Helvetica, Arial, sans-serif" font-size="8.5" font-weight="700" letter-spacing="0.7" text-anchor="start">RECRUITER NOTE</text>
<rect x="18" y="258" width="250" height="5" rx="2.5" fill="#18181B" fill-opacity="0.09"/>
<rect x="18" y="270" width="232" height="5" rx="2.5" fill="#18181B" fill-opacity="0.09"/>
<rect x="18" y="282" width="180" height="5" rx="2.5" fill="#18181B" fill-opacity="0.09"/>
</svg>
